<svg xmlns="http://www.w3.org/2000/svg" width="24" height="24" fill="none" viewBox="0 0 24 24"><path fill="#000" fill-rule="evenodd" d="M18 23C20.7614 23 23 20.7614 23 18C23 15.2386 20.7614 13 18 13C15.2386 13 13 15.2386 13 18C13 20.7614 15.2386 23 18 23ZM20 3.5C20 4.88071 18.8807 6 17.5 6C16.1193 6 15 4.88071 15 3.5C15 2.11929 16.1193 1 17.5 1C18.8807 1 20 2.11929 20 3.5ZM17.2775 2.38889C16.7866 2.38889 16.3887 2.78686 16.3887 3.27778C16.3887 3.40051 16.2892 3.5 16.1664 3.5C16.0437 3.5 15.9442 3.40051 15.9442 3.27778C15.9442 2.5414 16.5412 1.94444 17.2775 1.94444C17.4003 1.94444 17.4998 2.04394 17.4998 2.16666C17.4998 2.28939 17.4003 2.38889 17.2775 2.38889ZM8 16C11.866 16 15 12.866 15 9C15 5.13401 11.866 2 8 2C4.13401 2 1 5.13401 1 9C1 12.866 4.13401 16 8 16ZM4.88824 8.37777C4.88824 7.0032 6.00256 5.88888 7.37713 5.88888C7.72078 5.88888 7.99935 5.61031 7.99935 5.26666C7.99935 4.92302 7.72078 4.64444 7.37713 4.64444C5.31527 4.64444 3.6438 6.31591 3.6438 8.37777C3.6438 8.72142 3.92238 9 4.26602 9C4.60967 9 4.88824 8.72142 4.88824 8.37777ZM15.7773 17.5556C15.7773 16.5737 16.5733 15.7778 17.5551 15.7778C17.8006 15.7778 17.9995 15.5788 17.9995 15.3333C17.9995 15.0879 17.8006 14.8889 17.5551 14.8889C16.0823 14.8889 14.8884 16.0828 14.8884 17.5556C14.8884 17.801 15.0874 18 15.3329 18C15.5783 18 15.7773 17.801 15.7773 17.5556Z" clip-rule="evenodd"/></svg>