<svg width="30" height="30" viewBox="0 0 30 30" fill="none" xmlns="http://www.w3.org/2000/svg">
<path d="M3 19.25C3.41421 19.25 3.75 19.5858 3.75 20V28.25C3.75 28.6642 3.41421 29 3 29C2.58579 29 2.25 28.6642 2.25 28.25V20C2.25 19.5858 2.58579 19.25 3 19.25ZM9 25.25C9.41421 25.25 9.75 25.5858 9.75 26V28.25C9.75 28.6642 9.41421 29 9 29C8.58579 29 8.25 28.6642 8.25 28.25V26C8.25 25.5858 8.58579 25.25 9 25.25ZM15 22.25C15.4142 22.25 15.75 22.5858 15.75 23V28.25C15.75 28.6642 15.4142 29 15 29C14.5858 29 14.25 28.6642 14.25 28.25V23C14.25 22.5858 14.5858 22.25 15 22.25ZM21 19.25C21.4142 19.25 21.75 19.5858 21.75 20V28.25C21.75 28.6642 21.4142 29 21 29C20.5858 29 20.25 28.6642 20.25 28.25V20C20.25 19.5858 20.5858 19.25 21 19.25ZM27 22.5C27.4142 22.5 27.75 22.8358 27.75 23.25V28.25C27.75 28.6642 27.4142 29 27 29C26.5858 29 26.25 28.6642 26.25 28.25V23.25C26.25 22.8358 26.5858 22.5 27 22.5ZM9 1C10.1046 1 11 1.89543 11 3V22.25C11 23.3546 10.1046 24.25 9 24.25C7.89543 24.25 7 23.3546 7 22.25V3C7 1.89543 7.89543 1 9 1ZM27 1C28.1046 1 29 1.89543 29 3V19.5C29 20.6046 28.1046 21.5 27 21.5C25.8954 21.5 25 20.6046 25 19.5V3C25 1.89543 25.8954 1 27 1ZM15 1C16.1046 1 17 1.89543 17 3V19.25C17 20.3546 16.1046 21.25 15 21.25C13.8954 21.25 13 20.3546 13 19.25V3C13 1.89543 13.8954 1 15 1ZM3 1C4.10457 1 5 1.89543 5 3V16.25C5 17.3546 4.10457 18.25 3 18.25C1.89543 18.25 1 17.3546 1 16.25V3C1 1.89543 1.89543 1 3 1ZM21 1C22.1046 1 23 1.89543 23 3V16.25C23 17.3546 22.1046 18.25 21 18.25C19.8954 18.25 19 17.3546 19 16.25V3C19 1.89543 19.8954 1 21 1Z" fill="black"/>
</svg>
